<?xml version="1.0" encoding="UTF-8" standalone="no"?>
<!-- Generator: Adobe Illustrator 22.0.1, SVG Export Plug-In . SVG Version: 6.00 Build 0)  -->

<svg
   xmlns:dc="http://purl.org/dc/elements/1.1/"
   xmlns:cc="http://creativecommons.org/ns#"
   xmlns:rdf="http://www.w3.org/1999/02/22-rdf-syntax-ns#"
   xmlns:svg="http://www.w3.org/2000/svg"
   xmlns="http://www.w3.org/2000/svg"
   xmlns:sodipodi="http://sodipodi.sourceforge.net/DTD/sodipodi-0.dtd"
   xmlns:inkscape="http://www.inkscape.org/namespaces/inkscape"
   version="1.1"
   id="Layer_1"
   x="0px"
   y="0px"
   viewBox="0 0 800 180"
   xml:space="preserve"
   sodipodi:docname="logo.svg"
   width="800"
   height="180"
   inkscape:version="0.92.2 5c3e80d, 2017-08-06"><metadata
     id="metadata75"><rdf:RDF><cc:Work
         rdf:about=""><dc:format>image/svg+xml</dc:format><dc:type
           rdf:resource="http://purl.org/dc/dcmitype/StillImage" /><dc:title></dc:title></cc:Work></rdf:RDF></metadata><defs
     id="defs73" /><sodipodi:namedview
     pagecolor="#ffffff"
     bordercolor="#666666"
     borderopacity="1"
     objecttolerance="10"
     gridtolerance="10"
     guidetolerance="10"
     inkscape:pageopacity="0"
     inkscape:pageshadow="2"
     inkscape:window-width="1105"
     inkscape:window-height="615"
     id="namedview71"
     showgrid="false"
     inkscape:zoom="0.36"
     inkscape:cx="400"
     inkscape:cy="300"
     inkscape:window-x="0"
     inkscape:window-y="0"
     inkscape:window-maximized="0"
     inkscape:current-layer="Layer_1" /><style
     type="text/css"
     id="style2">
	.st0{fill:#231F20;}
</style><g
     id="g8"
     transform="matrix(1.1786352,0,0,1.1786352,-68.578064,-262.01714)"><path
       class="st0"
       d="m 76.8,324.1 c 4.2,4.5 9.9,6.9 16.3,7.9 v 4.1 c -7.3,-0.9 -14.7,-4.4 -19.4,-9.4 z m 24.6,7.9 c 8.9,-1 15.2,-6.3 15.2,-14.8 0,-8.4 -6.3,-11.5 -13.8,-14.4 l -14.4,-5.5 c -8,-3.1 -12.9,-8.6 -12.9,-16.4 0,-10.1 8.5,-16.5 17.3,-17.2 v 4 c -6.3,0.6 -13.3,5 -13.3,13 0,5.3 3.1,9.9 10.3,12.7 l 14.6,5.5 c 8.5,3.3 16.3,7.5 16.3,18.2 0,11.5 -8.9,17.7 -19.2,18.9 v -4 z M 101,263.7 c 0,0 10.1,0.8 17.5,7.8 l -2.7,3 c -5,-4.4 -9.5,-5.7 -14.8,-6.7 z"
       id="path4"
       inkscape:connector-curvature="0"
       style="fill:#231f20" /><path
       d="M 93.6,336.7 93,336.6 c -7.7,-1 -15,-4.5 -19.7,-9.5 l -0.4,-0.4 3.9,-3.3 0.3,0.3 c 3.9,4.1 9.2,6.7 16,7.8 l 0.4,0.1 v 5.1 z m -19.1,-9.9 c 4.4,4.5 11.1,7.7 18.1,8.8 v -3.1 C 86,331.4 80.7,328.8 76.8,324.8 Z m 26.4,9.9 v -5.1 l 0.4,-0.1 c 9.1,-1.1 14.7,-6.5 14.7,-14.3 0,-8.1 -6.1,-11.1 -13.5,-14 l -14.4,-5.5 c -8.5,-3.3 -13.2,-9.2 -13.2,-16.8 0,-10.6 9.1,-17 17.8,-17.7 h 0.5 v 5 H 92.7 C 86.6,268.8 80,273 80,280.8 c 0,5.5 3.4,9.7 9.9,12.2 l 14.6,5.5 c 8,3.1 16.6,7.3 16.6,18.7 0,12.6 -10.1,18.3 -19.6,19.4 z m 1,-4.3 v 3.1 c 8.9,-1.2 18.2,-6.6 18.2,-18.3 0,-10.8 -8.2,-14.8 -15.9,-17.8 L 89.6,293.9 C 82.7,291.3 79,286.7 79,280.7 79,272.9 85.6,268 92.3,267.2 v -3 c -8,0.8 -16.3,6.9 -16.3,16.6 0,7.1 4.5,12.8 12.6,15.9 l 14.4,5.5 c 7.7,3 14.1,6.2 14.1,14.9 -0.1,8.3 -5.9,14.1 -15.2,15.3 z m 13.9,-57.3 -0.4,-0.3 c -5,-4.5 -9.8,-5.7 -14.6,-6.6 l -0.4,-0.1 v -5 h 0.5 c 0.4,0 10.4,0.9 17.8,7.9 l 0.4,0.3 z m -14.3,-7.8 c 4.7,0.9 9.3,2.2 14.3,6.4 l 2,-2.3 c -6.2,-5.6 -14.2,-7 -16.3,-7.2 z"
       id="path6"
       inkscape:connector-curvature="0" /></g><g
     id="g14"
     transform="matrix(1.1786352,0,0,1.1786352,-68.578064,-262.01714)"><path
       class="st0"
       d="m 136.6,264.2 h 4 v 71.3 h -4 z m 12.3,32.1 29.1,-32.1 h 5.5 l -34.6,38.1 z m 14.2,2.7 25.1,36.5 h -4.9 l -22.9,-33.4 z"
       id="path10"
       inkscape:connector-curvature="0"
       style="fill:#231f20" /><path
       d="M 189.1,336 H 183 l -23.3,-33.9 3.5,-3.9 z m -5.6,-1 h 3.7 l -24.2,-35.2 -2.1,2.3 z m -42.3,1 h -5 v -72.3 h 5 z m -4.1,-1 h 3 v -70.3 h -3 z m 11.3,-31.4 v -7.5 l 29.4,-32.4 h 6.8 z m 1,-7.1 v 4.6 l 32.9,-36.4 h -4.1 z"
       id="path12"
       inkscape:connector-curvature="0" /></g><g
     id="g20"
     transform="matrix(1.1786352,0,0,1.1786352,-68.578064,-262.01714)"><path
       class="st0"
       d="m 204.2,264.2 h 4 v 71.3 h -4 z m 12.3,0 h 30.7 v 4 h -30.7 z m 0,33.6 h 23.8 v 4 h -23.8 z m 0,33.7 h 30.7 v 4 h -30.7 z"
       id="path16"
       inkscape:connector-curvature="0"
       style="fill:#231f20" /><path
       d="M 247.8,336 H 216 v -5 h 31.7 v 5 z M 217,335 h 29.7 v -3 H 217 Z m -8.3,1 h -5 v -72.3 h 5 z m -4,-1 h 3 v -70.3 h -3 z m 36.1,-32.6 H 216 v -5 h 24.8 z m -23.8,-1 h 22.8 v -3 H 217 Z m 30.8,-32.7 H 216 v -5 h 31.7 v 5 z m -30.8,-1 h 29.7 v -3 H 217 Z"
       id="path18"
       inkscape:connector-curvature="0" /></g><g
     id="g26"
     transform="matrix(1.1786352,0,0,1.1786352,-68.578064,-262.01714)"><rect
       x="269"
       y="264.20001"
       class="st0"
       width="4"
       height="71.300003"
       id="rect22"
       style="fill:#231f20" /><path
       d="m 273.6,336 h -5 v -72.3 h 5 z m -4.1,-1 h 3 v -70.3 h -3 z"
       id="path24"
       inkscape:connector-curvature="0" /></g><g
     id="g32"
     transform="matrix(1.1786352,0,0,1.1786352,-68.578064,-262.01714)"><path
       class="st0"
       d="m 288.3,264.2 h 4.3 l 26,67.2 -2.1,5.5 z m 32.7,50.3 19.5,-50.3 h 4.3 L 323.2,320 Z"
       id="path28"
       inkscape:connector-curvature="0"
       style="fill:#231f20" /><path
       d="m 316.6,338.3 -29,-74.6 h 5.4 l 26.2,67.7 z m -27.5,-73.6 27.5,70.8 1.6,-4.1 -25.8,-66.7 z m 34.1,56.7 -2.7,-6.9 0.1,-0.2 19.6,-50.6 h 5.4 z m -1.7,-6.9 1.6,4.2 21,-53.9 h -3.3 z"
       id="path30"
       inkscape:connector-curvature="0" /></g><g
     id="g38"
     transform="matrix(1.1786352,0,0,1.1786352,-68.578064,-262.01714)"><path
       class="st0"
       d="m 355.7,264.2 h 46.9 v 4 h -46.9 z m 21.5,12.3 h 4 v 59 h -4 z"
       id="path34"
       inkscape:connector-curvature="0"
       style="fill:#231f20" /><path
       d="m 381.7,336 h -5 v -60 h 5 z m -4,-1 h 3 v -58 h -3 z m 25.5,-66.3 h -47.9 v -5 h 47.9 z m -47,-1 h 45.9 v -3 h -45.9 z"
       id="path36"
       inkscape:connector-curvature="0" /></g><g
     id="g44"
     transform="matrix(1.1786352,0,0,1.1786352,-68.578064,-262.01714)"><path
       class="st0"
       d="m 456.4,228.8 h 4.5 L 395.4,371 h -4.5 z m -0.1,82.9 h 26.9 l -19.8,-42.7 2.2,-4.8 32.9,71.3 H 494 l -9.1,-19.8 h -30.5 z"
       id="path40"
       inkscape:connector-curvature="0"
       style="fill:#231f20" /><path
       d="m 395.7,371.5 h -5.6 l 0.3,-0.7 65.6,-142.5 h 5.6 z m -4,-1 h 3.4 l 65,-141.2 h -3.4 z M 499.3,336 h -5.6 l -9.1,-19.8 h -31 l 2.3,-5 h 26.4 l -19.5,-42.2 2.8,-6 z m -4.9,-1 h 3.3 l -32.1,-69.6 -1.7,3.6 20,43.2 h -27.3 l -1.4,3 h 30.1 z"
       id="path42"
       inkscape:connector-curvature="0" /></g><g
     id="g50"
     transform="matrix(1.1786352,0,0,1.1786352,-68.578064,-262.01714)"><path
       class="st0"
       d="m 512.5,264.2 h 4 v 71.3 h -4 z m 12.3,33.6 h 17.6 c 8.2,0 14.8,-6.7 14.8,-14.9 0,-8.2 -6.6,-14.8 -14.8,-14.8 h -17.6 v -4 h 17.6 c 10.4,0 18.8,8.4 18.8,18.8 0,10.4 -8.4,18.9 -18.8,18.9 h -17.6 z m 22.5,11.8 16,25.9 h -4.8 l -15.6,-25.4 c 1.5,0 3,-0.1 4.4,-0.5"
       id="path46"
       inkscape:connector-curvature="0"
       style="fill:#231f20" /><path
       d="m 564.2,336 h -5.9 L 542,309.7 h 0.9 c 1.7,-0.1 3.1,-0.2 4.3,-0.6 l 0.4,-0.1 z m -5.4,-1 h 3.6 L 547,310.2 c -1,0.2 -2.1,0.4 -3.3,0.5 z m -41.8,1 h -5 v -72.3 h 5 z m -4,-1 h 3 v -70.3 h -3 z m 29.4,-32.6 h -18.1 v -5 h 18.1 c 7.9,0 14.3,-6.4 14.3,-14.4 0,-7.9 -6.4,-14.3 -14.3,-14.3 h -18.1 v -5 h 18.1 c 10.6,0 19.3,8.7 19.3,19.3 0,10.7 -8.7,19.4 -19.3,19.4 z m -17.1,-1 h 17.1 c 10.1,0 18.3,-8.3 18.3,-18.4 0,-10.1 -8.2,-18.3 -18.3,-18.3 h -17.1 v 3 h 17.1 c 8.4,0 15.3,6.8 15.3,15.3 0,8.5 -6.8,15.4 -15.3,15.4 h -17.1 z"
       id="path48"
       inkscape:connector-curvature="0" /></g><g
     id="g56"
     transform="matrix(1.1786352,0,0,1.1786352,-68.578064,-262.01714)"><path
       class="st0"
       d="m 579.3,264.2 h 4 v 71.3 h -4 z m 12.4,32.1 29.1,-32.1 h 5.5 l -34.6,38.1 z m 14.1,2.7 25.1,36.5 H 626 l -23,-33.4 z"
       id="path52"
       inkscape:connector-curvature="0"
       style="fill:#231f20" /><path
       d="m 631.8,336 h -6.1 l -0.1,-0.2 -23.2,-33.7 3.5,-3.9 z m -5.6,-1 h 3.7 l -24.2,-35.2 -2.1,2.3 z m -42.3,1 h -5 v -72.3 h 5 z m -4.1,-1 h 3 v -70.3 h -3 z m 11.4,-31.4 v -7.5 l 29.4,-32.4 h 6.8 z m 1,-7.1 v 4.6 l 32.9,-36.4 H 621 Z"
       id="path54"
       inkscape:connector-curvature="0" /></g><g
     id="g62"
     transform="matrix(1.1786352,0,0,1.1786352,-68.578064,-262.01714)"><rect
       x="649.5"
       y="264.20001"
       class="st0"
       width="4"
       height="71.300003"
       id="rect58"
       style="fill:#231f20" /><path
       d="m 654,336 h -5 v -72.3 h 5 z m -4,-1 h 3 v -70.3 h -3 z"
       id="path60"
       inkscape:connector-curvature="0" /></g><g
     id="g68"
     transform="matrix(1.1786352,0,0,1.1786352,-68.578064,-262.01714)"><path
       class="st0"
       d="m 668.8,264.2 h 4.3 l 26,67.2 -2.1,5.5 z m 32.7,50.3 19.5,-50.3 h 4.3 L 703.6,320 Z"
       id="path64"
       inkscape:connector-curvature="0"
       style="fill:#231f20" /><path
       d="m 697.1,338.3 -29,-74.6 h 5.4 l 0.1,0.3 26.1,67.4 z m -27.6,-73.6 27.5,70.8 1.6,-4.1 -25.8,-66.7 z m 34.1,56.7 -2.7,-6.9 0.1,-0.2 19.6,-50.6 h 5.4 z m -1.6,-6.9 1.6,4.2 21,-53.9 h -3.3 z"
       id="path66"
       inkscape:connector-curvature="0" /></g></svg>